<?xml version="1.0" standalone="no"?>
<!DOCTYPE svg PUBLIC "-//W3C//DTD SVG 20010904//EN"
 "http://www.w3.org/TR/2001/REC-SVG-20010904/DTD/svg10.dtd">
<svg version="1.0" xmlns="http://www.w3.org/2000/svg"
 width="1024.000000pt" height="1024.000000pt" viewBox="0 0 1024.000000 1024.000000"
 preserveAspectRatio="xMidYMid meet">

<g transform="translate(0.000000,1024.000000) scale(0.100000,-0.100000)"
fill="#000000" stroke="none">
<path d="M3790 8521 c-129 -42 -215 -140 -240 -273 -6 -28 -10 -177 -11 -332
l0 -281 -27 55 c-15 30 -30 57 -34 58 -5 2 -8 33 -8 68 0 63 0 64 -27 63 -24
-2 -25 -2 -5 -6 16 -3 22 -11 21 -31 0 -15 -3 -21 -6 -14 -6 15 -93 17 -93 1
0 -5 -5 -7 -10 -4 -6 4 -8 11 -4 17 3 5 -8 2 -25 -7 -18 -9 -29 -20 -26 -25 3
-5 0 -12 -6 -16 -8 -4 -9 -3 -5 4 13 21 -10 13 -30 -10 -19 -22 -19 -23 1 -8
18 14 19 14 7 -2 -8 -9 -19 -15 -27 -12 -17 7 -98 -94 -136 -168 -38 -76 -57
-150 -65 -259 l-7 -89 194 -1 c233 -1 257 -4 289 -27 51 -38 52 -43 43 -445
-4 -204 -9 -361 -11 -348 -3 19 -6 21 -13 10 -7 -12 -9 -11 -9 2 0 9 -7 20
-16 23 -8 3 -12 2 -9 -4 4 -6 -7 -10 -24 -10 -25 0 -31 -4 -31 -21 0 -18 -4
-20 -27 -16 -55 11 -88 16 -70 11 28 -9 19 -19 -18 -20 -39 -2 -95 -22 -95
-35 0 -5 -24 -10 -52 -11 l-53 -1 60 -7 c33 -4 -67 -7 -221 -6 -252 0 -283 -2
-298 -17 -10 -9 -22 -17 -27 -17 -6 0 -19 -19 -29 -42 -11 -24 -20 -37 -20
-29 0 8 -3 12 -6 8 -12 -12 38 -66 81 -87 l45 -22 2 -1771 c3 -1698 4 -1774
22 -1827 51 -151 156 -291 279 -371 l58 -38 -43 -5 c-24 -3 -86 -10 -138 -16
-166 -19 -150 -23 235 -55 350 -29 798 -77 1535 -165 1023 -123 1146 -137
1430 -160 200 -16 233 -19 358 -25 62 -3 133 -10 158 -14 24 -5 41 -5 38 0 -3
5 7 4 22 -1 21 -8 314 -21 479 -21 10 0 24 -3 30 -7 9 -6 28 -8 45 -3 28 8
150 7 150 0 0 -6 7 -3 16 5 19 20 38 20 56 3 11 -12 16 -12 27 0 8 9 28 13 52
12 21 -2 41 0 45 3 3 4 12 4 20 1 8 -3 14 0 14 7 0 6 5 8 12 3 20 -11 52 -9
66 5 7 6 19 12 25 12 7 0 6 -4 -3 -10 -8 -5 -10 -10 -5 -10 6 0 20 7 32 15 16
12 23 12 26 2 4 -9 8 -9 15 1 5 8 12 13 16 13 32 -4 56 1 50 10 -5 9 1 10 20
5 16 -4 25 -3 22 2 -3 5 9 9 27 8 17 -1 42 4 54 12 12 7 27 11 33 7 6 -4 19 2
28 13 14 16 22 18 36 10 16 -9 17 -7 11 13 -7 21 -5 20 20 -7 27 -28 27 -29
20 -4 -7 20 -5 23 6 14 15 -12 51 -15 44 -4 -2 3 4 12 15 20 10 7 16 19 13 26
-4 10 5 12 34 8 29 -4 34 -3 23 5 -12 9 -11 11 9 11 16 0 21 4 18 14 -4 9 0
12 12 9 10 -2 23 3 30 11 8 9 31 19 52 22 25 4 39 12 39 21 0 11 8 14 30 11
17 -3 30 -1 30 4 0 4 -5 8 -11 8 -6 0 -4 7 5 15 8 8 20 15 27 15 7 0 20 7 30
16 14 13 22 13 41 4 l23 -12 -22 21 c-28 27 -29 35 -3 21 18 -10 24 -7 21 12
0 4 6 5 15 1 14 -5 14 -3 2 16 -8 13 -20 20 -30 17 -10 -2 -21 1 -25 6 -3 7
-1 8 5 4 7 -4 12 -2 12 3 0 6 -4 11 -10 11 -5 0 -10 7 -10 15 0 8 -7 15 -15
15 -9 0 -28 9 -43 20 -15 11 -40 22 -57 24 -16 2 -41 8 -55 13 -14 5 -32 9
-40 8 -8 0 -18 4 -22 10 -4 5 -35 10 -70 11 -107 3 -105 3 -88 14 13 8 12 10
-2 10 -10 0 -18 -5 -18 -11 0 -8 -5 -8 -15 1 -8 7 -47 14 -87 16 -40 2 -100 7
-133 9 -33 3 -140 6 -237 7 -113 2 -178 6 -178 13 0 5 -4 5 -8 -2 -4 -7 -13
-9 -20 -4 -10 6 -4 21 22 61 20 30 50 92 68 139 l33 86 0 2545 0 2545 -28 70
c-98 245 -324 436 -551 464 -50 6 -50 6 -58 49 -25 148 -139 263 -276 278
-102 12 -225 -65 -279 -175 l-28 -56 -3 -307 c-2 -175 -7 -308 -13 -308 -22 0
-49 80 -49 145 l0 65 -210 0 -210 0 0 25 0 25 210 0 211 0 -3 133 -3 132 -45
5 c-43 5 -45 6 -52 47 -27 162 -175 288 -314 269 -62 -8 -133 -47 -181 -99
-67 -72 -85 -118 -93 -232 -6 -90 -4 -450 4 -517 4 -40 -21 -17 -36 33 -6 22
-15 39 -20 39 -4 0 -8 32 -8 70 l0 70 -480 0 -480 0 0 25 0 25 228 2 227 3 0
130 0 130 -59 5 -60 5 -11 55 c-27 138 -132 237 -270 255 -108 14 -235 -69
-293 -193 l-27 -57 -3 -292 c-3 -255 -5 -291 -18 -286 -9 3 -20 17 -25 32 -6
15 -13 21 -17 14 -4 -6 -5 24 -3 68 l3 79 -221 0 -221 0 0 25 0 25 220 0 220
0 0 134 0 134 -41 -2 -42 -1 -16 60 c-32 111 -89 189 -172 231 -52 26 -139 38
-179 25z m3090 -626 c47 -12 104 -32 126 -43 58 -30 141 -94 171 -133 35 -47
73 -129 73 -160 0 -15 14 -41 36 -65 75 -81 69 142 72 -2334 2 -1660 0 -2239
-8 -2279 -11 -50 -67 -131 -91 -131 -5 0 -10 62 -11 138 -1 75 -3 111 -5 78
-3 -33 -10 -65 -19 -73 -11 -11 -14 -12 -15 -1 0 7 -6 -3 -12 -22 l-12 -35 -3
43 c-2 23 -7 42 -13 42 -5 0 -9 -53 -9 -124 0 -184 -32 -258 -145 -336 -54
-37 -67 -38 -32 -3 14 16 36 51 49 78 l23 50 3 866 3 866 41 19 c59 26 106 79
124 138 33 111 27 954 -8 1036 -20 47 -73 96 -123 116 l-43 16 -5 236 c-3 131
-10 255 -15 277 -10 40 -10 40 -11 8 0 -18 -5 -33 -9 -33 -5 0 -12 291 -15
648 -7 682 -10 719 -56 843 -39 103 -129 222 -216 288 l-30 22 50 -6 c28 -4
88 -17 135 -30z m-3005 -323 c-13 -71 -120 -152 -201 -152 -84 0 -194 82 -209
155 -6 29 -5 29 10 -5 36 -79 113 -130 195 -130 59 0 92 15 137 62 38 40 62
94 65 145 l1 38 4 -40 c3 -21 2 -54 -2 -73z m762 16 c-3 -8 -6 -5 -6 6 -1 11
2 17 5 13 3 -3 4 -12 1 -19z m-20 -55 c-36 -68 -131 -119 -205 -109 -56 7
-119 44 -149 85 -35 47 -27 45 25 -8 34 -34 61 -51 94 -59 85 -21 173 12 216
83 30 47 42 53 19 8z m2053 17 c-6 -11 -13 -20 -16 -20 -2 0 0 9 6 20 6 11 13
20 16 20 2 0 0 -9 -6 -20z m-1546 -80 c47 -18 56 -54 56 -230 0 -158 -1 -161
-25 -185 -34 -35 -78 -33 -116 4 l-29 29 0 161 c0 168 7 201 44 219 27 14 39
14 70 2z m-756 -227 c12 -10 60 -74 107 -143 73 -106 85 -129 80 -154 -6 -35
-31 -65 -64 -78 -42 -16 -78 8 -134 91 -28 42 -70 102 -94 135 -51 69 -54 97
-14 137 34 34 87 39 119 12z m1556 -14 c14 -17 26 -41 26 -54 0 -23 -158 -269
-188 -292 -19 -15 -76 -17 -101 -3 -29 15 -45 64 -33 99 12 33 133 211 174
253 38 40 87 39 122 -3z m-2008 -546 c103 -97 124 -121 124 -146 0 -43 -48
-87 -96 -87 -34 0 -47 10 -146 108 -60 59 -114 115 -119 125 -14 24 6 82 34
102 48 34 71 22 203 -102z m2533 91 c24 -20 31 -34 31 -61 0 -32 -11 -47 -110
-145 -61 -60 -122 -113 -135 -118 -32 -12 -66 1 -94 36 -40 51 -31 69 91 187
145 139 163 147 217 101z m-1157 -28 c273 -52 522 -207 693 -430 108 -142 204
-365 219 -511 4 -36 3 -41 -3 -20 -7 25 -9 27 -16 12 -4 -11 -2 -28 6 -43 9
-17 10 -28 3 -32 -6 -4 -14 -16 -17 -26 -4 -10 -10 -16 -13 -13 -8 8 -34 -18
-34 -32 0 -6 5 -11 12 -11 6 0 4 -7 -5 -18 -10 -10 -17 -35 -17 -55 0 -23 -7
-44 -18 -55 -11 -11 -22 -37 -25 -59 -4 -22 -16 -48 -27 -58 -11 -10 -20 -24
-20 -31 0 -7 -5 -14 -10 -16 -6 -2 -13 -18 -15 -37 -2 -19 -11 -41 -20 -51 -9
-10 -13 -24 -9 -34 4 -11 -2 -26 -16 -42 -13 -13 -18 -24 -12 -24 7 0 12 -9
12 -20 0 -11 -4 -20 -10 -20 -5 0 -10 -9 -10 -20 0 -13 -7 -20 -20 -20 -12 0
-20 -7 -20 -16 0 -8 -7 -22 -15 -30 -8 -9 -16 -33 -16 -55 -1 -21 -2 -45 -3
-51 -1 -7 -14 -22 -31 -33 -16 -12 -38 -38 -48 -59 -10 -22 -34 -55 -53 -75
-19 -20 -40 -48 -47 -63 -6 -16 -16 -28 -20 -28 -5 0 -2 -7 6 -15 27 -26 16
-78 -26 -124 -33 -37 -42 -42 -75 -39 l-37 3 -5 330 c-5 314 -7 333 -29 388
-58 148 -199 251 -372 272 -151 19 -344 -86 -414 -225 -50 -99 -55 -140 -55
-472 l0 -308 -38 0 c-30 0 -41 5 -49 23 -6 12 -87 104 -181 204 -204 219 -259
290 -317 408 -82 169 -115 310 -115 495 0 314 116 595 332 809 46 44 110 101
143 126 115 86 297 168 445 199 87 19 318 20 412 2z m-2265 -1918 c-3 -700 -6
-1278 -7 -1285 -2 -7 -7 -10 -11 -8 -3 3 -10 -5 -15 -18 -4 -12 -11 556 -14
1263 -4 751 -3 1292 2 1303 5 9 18 17 29 17 19 0 20 -7 16 -1272z m692 1137
c33 -16 41 -33 41 -80 0 -24 -7 -39 -26 -54 -24 -19 -40 -21 -182 -21 -156 0
-156 0 -184 27 -37 36 -37 75 1 114 l29 29 147 0 c109 0 153 -4 174 -15z
m3065 -14 c33 -31 35 -85 4 -118 -21 -22 -27 -23 -177 -23 -145 0 -156 1 -178
22 -40 37 -24 118 26 137 14 6 88 9 163 8 129 -2 138 -3 162 -26z m-567 -273
c-2 -13 -4 -3 -4 22 0 25 2 35 4 23 2 -13 2 -33 0 -45z m0 -205 c-2 -16 -4 -5
-4 22 0 28 2 40 4 28 2 -13 2 -35 0 -50z m852 29 c19 -10 42 -30 50 -43 14
-22 14 -23 0 -11 -26 20 -29 -2 -29 -224 l0 -204 -26 -10 c-14 -6 -36 -10 -50
-10 -27 0 -44 -28 -24 -40 24 -15 3 -40 -35 -40 -28 0 -35 -4 -35 -20 0 -13
-7 -20 -20 -20 -11 0 -20 -4 -20 -10 0 -5 -7 -10 -16 -10 -9 0 -18 -9 -21 -20
-3 -11 -11 -20 -18 -20 -7 0 -18 -13 -25 -30 -9 -22 -21 -31 -46 -36 -19 -3
-34 -10 -34 -15 0 -5 -9 -9 -20 -9 -11 0 -20 -4 -20 -10 0 -5 -9 -10 -20 -10
-11 0 -20 -4 -20 -8 0 -5 -25 -14 -55 -21 -35 -8 -55 -18 -55 -27 0 -10 -13
-14 -45 -14 -35 0 -47 -5 -55 -21 -9 -16 -18 -19 -39 -14 -25 5 -29 2 -35 -19
-7 -29 -27 -34 -45 -12 -9 11 -2 26 37 73 66 79 137 184 171 252 53 104 113
275 125 356 9 61 1 66 -72 51 -60 -12 -62 -12 -63 8 -1 16 -2 17 -6 4 -2 -9 1
-27 8 -40 11 -20 10 -21 -3 -11 -13 11 -17 5 -28 -45 -49 -220 -159 -420 -324
-590 -115 -119 -174 -168 -222 -187 l-39 -15 45 37 c96 79 269 261 312 328
138 216 208 423 220 650 2 50 6 61 23 67 11 3 137 6 280 7 234 1 264 -1 294
-17z m-3429 -92 l0 -30 -194 0 c-201 0 -226 3 -226 26 0 28 38 33 228 34 l192
0 0 -30z m2567 -12 c-3 -8 -6 -5 -6 6 -1 11 2 17 5 13 3 -3 4 -12 1 -19z
m-156 -71 c-8 -8 -11 -7 -11 4 0 9 3 19 7 23 4 4 9 2 11 -4 3 -7 -1 -17 -7
-23z m-847 -130 c20 -16 46 -47 59 -70 21 -40 22 -53 25 -344 l3 -303 -196 0
-196 0 3 309 3 309 30 44 c46 64 96 90 171 86 49 -3 69 -10 98 -31z m899 -122
c-3 -9 -8 -14 -10 -11 -3 3 -2 9 2 15 9 16 15 13 8 -4z m-2315 -139 l10 -24
-267 -7 c-288 -8 -322 -4 -301 35 10 19 23 20 279 20 l268 0 11 -24z m2122
-129 c0 -2 -10 -12 -22 -23 l-23 -19 19 23 c18 21 26 27 26 19z m-86 -76 c3
-5 -2 -15 -12 -22 -15 -12 -16 -12 -5 2 7 9 10 19 6 22 -3 4 -4 7 0 7 3 0 8
-4 11 -9z m494 -194 c3 -21 -1 -27 -15 -27 -32 0 -45 21 -25 41 23 23 36 18
40 -14z m-17 -40 c24 -3 18 -4 -21 -5 -35 -1 -50 2 -41 7 7 5 10 15 7 22 -4 8
-1 6 6 -3 8 -9 30 -18 49 -21z m-2431 0 c24 -2 23 -3 -14 -29 l-39 -27 -286 5
c-157 3 -292 7 -298 9 -22 7 -14 25 16 38 21 9 106 11 312 9 156 -1 295 -4
309 -5z m424 -69 c13 -18 28 -50 31 -71 7 -35 4 -42 -30 -77 -21 -22 -43 -36
-48 -33 -6 3 -7 2 -4 -3 3 -6 -50 -66 -118 -134 -73 -73 -123 -116 -121 -104
2 10 -2 22 -7 26 -7 4 2 20 23 42 25 25 37 31 43 23 6 -8 7 -7 4 4 -8 23 41
69 52 50 7 -10 13 -11 30 -2 24 13 27 31 9 49 -9 9 -8 12 6 12 9 0 14 -4 11
-10 -3 -5 1 -10 9 -10 19 0 40 36 26 45 -5 3 -10 -2 -10 -11 0 -10 -3 -15 -6
-11 -11 10 7 46 20 41 7 -3 19 3 27 12 9 12 10 15 2 10 -23 -13 -14 7 19 44
18 19 -70 -66 -194 -190 -125 -123 -225 -226 -222 -229 9 -9 34 -9 40 0 3 5
15 9 27 9 22 -1 22 -1 2 -16 -11 -8 -27 -19 -35 -24 -12 -7 33 -56 198 -220
117 -116 210 -215 207 -220 -4 -6 -11 -7 -17 -4 -6 4 -8 3 -5 -3 3 -5 -34 -49
-83 -98 -73 -73 -90 -86 -96 -71 -4 9 -2 22 4 28 8 8 9 4 5 -13 -6 -24 -6 -24
14 -4 11 11 19 25 17 30 -1 6 -5 25 -8 44 -6 33 -6 34 13 17 19 -17 19 -17 14
3 -3 12 -1 21 6 21 7 0 11 16 9 43 -2 27 3 51 11 63 8 10 -49 -44 -127 -120
-77 -77 -138 -144 -135 -149 3 -6 2 -7 -4 -4 -5 3 -68 -53 -139 -125 -130
-131 -185 -175 -326 -262 -45 -27 -75 -53 -71 -59 3 -6 1 -7 -5 -3 -6 3 -57
-23 -113 -59 -57 -36 -113 -65 -125 -65 -12 0 -31 10 -41 22 -10 13 -29 32
-41 42 l-22 19 -29 -64 c-15 -35 -41 -102 -56 -148 -31 -93 -58 -146 -80 -155
-23 -8 -19 11 35 224 28 107 60 239 71 293 66 327 66 327 116 381 154 169
1168 1205 1180 1205 7 1 23 -14 37 -31z m1177 -180 c22 -12 45 -31 53 -42 13
-21 12 -21 -90 -18 -102 3 -103 3 -109 -21 -4 -13 -5 -39 -3 -58 l3 -34 123 0
122 0 0 -26 c0 -75 -51 -151 -124 -185 -50 -23 -56 -24 -356 -24 -285 0 -308
2 -350 21 -78 35 -122 93 -136 177 -8 54 18 141 53 174 61 58 59 58 432 58
335 0 344 -1 382 -22z m-1317 -67 c3 -5 -3 -11 -14 -14 -20 -5 -26 3 -13 16 9
10 21 9 27 -2z m-811 -228 c-7 -2 -13 -10 -13 -17 0 -23 -39 -47 -66 -40 -64
16 -30 65 45 63 25 0 40 -3 34 -6z m2112 -322 c22 -10 49 -28 59 -40 l19 -21
-106 0 -107 0 0 -65 0 -65 126 0 127 0 -6 -36 c-14 -86 -95 -169 -191 -195
-24 -6 -143 -9 -315 -7 l-276 3 -55 31 c-78 44 -113 97 -118 179 -7 100 35
181 112 216 37 17 70 19 366 19 294 0 329 -2 365 -19z m-1309 -203 c-1 -14 -7
-22 -15 -20 -7 2 -22 -5 -32 -14 -11 -9 -19 -14 -19 -10 0 5 59 64 66 66 1 0
1 -10 0 -22z m-79 -189 c10 -13 1 -27 -57 -84 -39 -38 -70 -66 -70 -63 0 4 10
17 23 29 l22 22 -24 -6 c-14 -4 -20 -2 -15 3 5 5 19 11 31 13 31 4 40 16 23
28 -12 9 -12 10 3 5 9 -3 17 -1 17 4 0 6 7 10 15 10 9 0 12 6 9 15 -6 14 3 53
9 44 1 -2 8 -11 14 -20z m-140 -149 c-2 -11 -8 -25 -14 -31 -13 -13 -12 2 2
34 10 23 16 22 12 -3z m4403 -1154 c0 -2 -7 -7 -16 -10 -8 -3 -12 -2 -9 4 6
10 25 14 25 6z"/>
<path d="M7243 3290 c0 -41 2 -58 4 -37 2 20 2 54 0 75 -2 20 -4 3 -4 -38z"/>
<path d="M4099 4103 l-24 -28 28 24 c25 23 32 31 24 31 -2 0 -14 -12 -28 -27z"/>
<path d="M4187 3383 c-10 -9 -9 -23 1 -23 5 0 9 7 9 15 0 17 -1 18 -10 8z"/>
<path d="M4166 3334 c-9 -8 -20 -13 -25 -9 -6 3 -9 -4 -8 -15 1 -18 3 -18 29
7 15 15 28 28 28 30 0 7 -10 2 -24 -13z"/>
<path d="M4050 3224 c0 -8 5 -12 10 -9 6 4 8 11 5 16 -9 14 -15 11 -15 -7z"/>
<path d="M5286 8515 c-75 -29 -130 -80 -173 -160 -26 -48 -28 -57 -31 -232
l-4 -183 226 0 226 0 0 161 c0 147 2 167 26 236 26 75 26 76 7 101 -52 70
-193 109 -277 77z"/>
<path d="M3335 8200 c-230 -30 -447 -187 -555 -399 -55 -110 -70 -192 -70
-388 l0 -173 93 0 c50 0 108 3 128 6 l36 6 6 107 c7 124 24 187 79 294 72 139
227 260 369 288 l59 12 0 128 0 129 -42 -1 c-24 -1 -70 -5 -103 -9z"/>
<path d="M3015 7021 c-52 -13 -92 -39 -129 -84 -118 -144 -73 -340 99 -426
178 -89 379 32 379 229 0 89 -36 155 -124 225 -60 48 -70 53 -130 58 -36 3
-78 2 -95 -2z m166 -59 c136 -71 162 -268 48 -365 -88 -76 -222 -73 -307 6
-89 83 -91 235 -4 320 75 73 170 88 263 39z"/>
<path d="M2818 6363 c7 -3 16 -2 19 1 4 3 -2 6 -13 5 -11 0 -14 -3 -6 -6z"/>
</g>
</svg>
